<?xml version="1.0" encoding="utf-8"?>
<!-- Generator: Adobe Illustrator 22.0.1, SVG Export Plug-In . SVG Version: 6.00 Build 0)  -->
<svg version="1.1" id="Layer_1" xmlns="http://www.w3.org/2000/svg" xmlns:xlink="http://www.w3.org/1999/xlink" x="0px" y="0px"
	 viewBox="0 0 16 16" style="enable-background:new 0 0 16 16;" xml:space="preserve">
<style type="text/css">
	.st0{fill:#C8C8C8;}
</style>
<g>
	<g>
		<path class="st0" d="M7.3,11.3l-3.4,1.1c-0.2,0.1-0.4-0.1-0.3-0.3l1.1-3.4C4.7,8.6,5,8.5,5.1,8.6c0.5,0.5,1.7,1.7,2.3,2.3
			C7.5,11,7.4,11.3,7.3,11.3z"/>
		<path class="st0" d="M8.2,10.3L5.7,7.8c-0.1-0.1-0.1-0.3,0-0.4l7.2-7.2c0.4-0.4,1-0.4,1.4,0l1.4,1.4c0.4,0.4,0.4,1,0,1.4l-7.2,7.2
			C8.4,10.4,8.3,10.4,8.2,10.3z"/>
	</g>
	<path class="st0" d="M12,10v5H1V4h5l1-1H1C0.4,3,0,3.4,0,4v11c0,0.6,0.4,1,1,1h11c0.6,0,1-0.4,1-1V9L12,10z"/>
</g>
</svg>
