<?xml version="1.0" encoding="utf-8"?>
<!-- Generator: Adobe Illustrator 22.0.1, SVG Export Plug-In . SVG Version: 6.00 Build 0)  -->
<svg version="1.1" id="Layer_1" xmlns="http://www.w3.org/2000/svg" xmlns:xlink="http://www.w3.org/1999/xlink" x="0px" y="0px"
	 viewBox="0 0 16 16" style="enable-background:new 0 0 16 16;" xml:space="preserve">
<style type="text/css">
	.st0{fill:#36BB55;}
</style>
<g>
	<rect x="-2.3" y="7" transform="matrix(0.7071 -0.7071 0.7071 0.7071 -3.3137 8.0002)" class="st0" width="20.6" height="2"/>
	<g>
		<path class="st0" d="M1.6,11.1l2.5-2.5C4,8.4,4,8.2,4,8c0-2.2,1.8-4,4-4c0.2,0,0.4,0,0.6,0.1L10.7,2C9.9,1.7,9,1.5,8,1.5
			c-4.8,0-7.1,4.2-7.9,5.9C0,7.8,0,8.2,0.1,8.6C0.4,9.2,0.9,10.1,1.6,11.1z"/>
		<path class="st0" d="M14.4,4.9l-2.5,2.5C12,7.6,12,7.8,12,8c0,2.2-1.8,4-4,4c-0.2,0-0.4,0-0.6-0.1L5.3,14C6.1,14.3,7,14.5,8,14.5
			c4.8,0,7.1-4.2,7.9-5.9c0.2-0.4,0.2-0.9,0-1.3C15.6,6.8,15.1,5.9,14.4,4.9z"/>
	</g>
</g>
</svg>
