<?xml version="1.0" encoding="utf-8"?>
<!-- Generator: Adobe Illustrator 22.0.1, SVG Export Plug-In . SVG Version: 6.00 Build 0)  -->
<svg version="1.1" id="Layer_1" xmlns="http://www.w3.org/2000/svg" xmlns:xlink="http://www.w3.org/1999/xlink" x="0px" y="0px"
	 viewBox="0 0 192 96" style="enable-background:new 0 0 192 96;" xml:space="preserve">
<style type="text/css">
	.st0{fill:#4B23A0;}
</style>
<g>
	<path class="st0" d="M124.8,66.5v-37c0-9-4.5-13.5-13.5-13.5s-13.5,4.5-13.5,13.5v37c0,9,4.5,13.5,13.5,13.5S124.8,75.5,124.8,66.5
		z M108.2,66.5v-37c0-2.3,1-3.5,3-3.5h0.1c2.1,0,3.1,1.2,3.1,3.5v37c0,2.3-1,3.5-3.1,3.5C109.2,70,108.2,68.9,108.2,66.5z"/>
	<polygon class="st0" points="130.6,16 130.6,80 141,80 141,54.1 149.4,80 160.6,80 148.3,47.7 160.4,16 149.2,16 141,41.3 141,16 	
		"/>
	<rect y="88" class="st0" width="192" height="8"/>
	<rect class="st0" width="192" height="8"/>
	<path class="st0" d="M13.5,80.1c9,0,13.5-4.5,13.5-13.5V48.7c0-4.2-0.7-7.3-2.1-9.2c-1.7-2.4-4.3-3.7-7.6-4
		c-0.4-0.1-0.8-0.1-1.2-0.1c-2.9,0-4.7,0.3-5.3,1.1L11.3,26h20.8v40.5c0,9,4.5,13.5,13.5,13.5s13.5-4.5,13.5-13.5V26h19.5
		c2,0,3.1,1.2,3.1,3.6v37c0,2.4-1,3.5-3.1,3.5h-3.1V34H65.1v46H79c8.7,0,13-4.5,13-13.5v-37c0-9-4.2-13.5-12.5-13.5H59.1h-3.8h-6.6
		v50.5c0,2.3-1,3.5-3.1,3.5c-2.1,0-3.1-1.1-3.1-3.5V16h-7h-3.4H1.4L0,50h10.4l0.1-3.2c0.2-1.1,0.9-1.7,2.3-1.8c0.3,0,0.5,0,0.8,0
		c0.9,0,1.6,0.1,2,0.3c0.7,0.3,1,1.4,1,3.3v17.9c0,2.3-1,3.5-3.1,3.5s-3.1-1.1-3.1-3.5v-7.9H0v7.9C0,75.5,4.5,80,13.5,80.1z"/>
	<path class="st0" d="M181.6,58.2V62h-3.1c-2,0-3.1-1.2-3.1-3.5V16H165v42.5c0,9,4.5,13.5,13.5,13.5c1.1,0,2.1,0,3.1,0v8H192V16
		h-10.4V58.2z"/>
</g>
</svg>
